<svg xmlns="http://www.w3.org/2000/svg" width="18.75" height="18.75" viewBox="0 0 18.75 18.75"><title>アセット 1</title><g id="レイヤー_2" data-name="レイヤー 2"><g id="Logo_FIXED" data-name="Logo — FIXED"><path d="M9.38,1.69c2.5,0,2.79,0,3.78.05a5.27,5.27,0,0,1,1.74.33,2.88,2.88,0,0,1,1.08.7,2.88,2.88,0,0,1,.7,1.08A5.27,5.27,0,0,1,17,5.59c0,1,0,1.28,0,3.79s0,2.79,0,3.78a5.27,5.27,0,0,1-.33,1.74,3.08,3.08,0,0,1-1.78,1.78,5.27,5.27,0,0,1-1.74.33c-1,0-1.28,0-3.78,0s-2.8,0-3.79,0a5.27,5.27,0,0,1-1.74-.33A2.88,2.88,0,0,1,2.77,16a2.88,2.88,0,0,1-.7-1.08,5.27,5.27,0,0,1-.33-1.74c0-1-.05-1.28-.05-3.78s0-2.8.05-3.79a5.27,5.27,0,0,1,.33-1.74,2.88,2.88,0,0,1,.7-1.08,2.88,2.88,0,0,1,1.08-.7,5.27,5.27,0,0,1,1.74-.33c1,0,1.28-.05,3.79-.05M9.38,0C6.83,0,6.51,0,5.51.06A6.84,6.84,0,0,0,3.23.49,4.78,4.78,0,0,0,.49,3.23,6.84,6.84,0,0,0,.06,5.51C0,6.51,0,6.83,0,9.38s0,2.86.06,3.86a6.84,6.84,0,0,0,.43,2.28,4.78,4.78,0,0,0,2.74,2.74,6.84,6.84,0,0,0,2.28.43c1,0,1.32.06,3.87.06s2.86,0,3.86-.06a6.84,6.84,0,0,0,2.28-.43,4.78,4.78,0,0,0,2.74-2.74,6.84,6.84,0,0,0,.43-2.28c0-1,.06-1.32.06-3.86s0-2.87-.06-3.87a6.84,6.84,0,0,0-.43-2.28A4.78,4.78,0,0,0,15.52.49,6.84,6.84,0,0,0,13.24.06C12.24,0,11.92,0,9.38,0Z"/><path d="M9.38,4.56a4.82,4.82,0,1,0,4.81,4.82A4.82,4.82,0,0,0,9.38,4.56Zm0,7.94A3.13,3.13,0,1,1,12.5,9.38,3.13,3.13,0,0,1,9.38,12.5Z"/><circle cx="14.38" cy="4.37" r="1.12"/></g></g></svg>