<svg xmlns="http://www.w3.org/2000/svg" width="380" height="350" viewBox="0 0 380 350"><defs><style>.cls-1{fill:none;stroke:#fff;stroke-miterlimit:10;stroke-width:1.8px;}.cls-2{fill:#fff;}</style></defs><title>アセット 1</title><g id="レイヤー_2" data-name="レイヤー 2"><g id="pict"><rect width="380" height="350"/><line class="cls-1" x1="211.92" y1="74.12" x2="257.54" y2="119.73"/><line class="cls-1" x1="309.58" y1="171.87" x2="263.97" y2="126.26"/><line class="cls-1" x1="211.9" y1="275.88" x2="257.51" y2="230.27"/><line class="cls-1" x1="309.65" y1="178.22" x2="264.04" y2="223.83"/></g><g id="レイヤー_1-2" data-name="レイヤー 1"><path class="cls-2" d="M90.28,117.86a.2.2,0,0,1-.21,0,.33.33,0,0,1-.2-.19,5,5,0,0,1-.39-.86c-.3-.8-.66-1.69-1.34-1.75-.35,0-.77,0-1.1,0h-.36c-.55,0-.75.08-.89.29a1,1,0,0,0-.13.59v9.43c0,.44.11.74.36.85a4.85,4.85,0,0,0,1.19.16.37.37,0,0,1,.34.38.33.33,0,0,1-.34.33H82.65a.35.35,0,1,1,0-.69,5.23,5.23,0,0,0,1.21-.18c.24-.11.36-.41.36-.85V116a1.07,1.07,0,0,0-.14-.64c-.16-.2-.41-.24-.87-.24h-.15c-.41,0-.75,0-1.21,0-.69,0-1.09,1-1.43,1.77a8,8,0,0,1-.37.8.29.29,0,0,1-.2.2.26.26,0,0,1-.21,0c-.14-.07-.18-.32-.11-.5s.47-2.44.52-2.58a.5.5,0,0,1,.46-.34h9a.48.48,0,0,1,.46.34c.06.14.39,2.35.45,2.62A.41.41,0,0,1,90.28,117.86Z"/><path class="cls-2" d="M111.24,126.65a.66.66,0,0,1-.65.38h-8.37A.4.4,0,0,1,102,127a.31.31,0,0,1-.11-.21.42.42,0,0,1,.09-.3.34.34,0,0,1,.27-.09,3.07,3.07,0,0,0,.93-.23,1,1,0,0,0,.42-.86v-9c0-.77-.14-1.11-1.07-1.22a.46.46,0,0,1-.3-.12.35.35,0,0,1-.07-.23.35.35,0,0,1,.37-.32h7.9a.43.43,0,0,1,.52.3c.14.62.42,2.3.46,2.58a.35.35,0,0,1-.16.43.24.24,0,0,1-.23,0,.3.3,0,0,1-.18-.21,3.29,3.29,0,0,0-3-2.44h-2.06c-.39,0-.52,0-.64.12s-.15.21-.15.69v4.3h2.64a1.07,1.07,0,0,0,1.09-.57,4.85,4.85,0,0,0,.21-1.19.36.36,0,0,1,.31-.33.3.3,0,0,1,.33.33v4.22a.27.27,0,0,1-.28.3.27.27,0,0,1-.32-.3,5,5,0,0,0-.25-1.23,1.07,1.07,0,0,0-1.09-.57H105v4.37c0,.64,0,1.23,1.25,1.23h1.87c.22,0,.7-.06.7-.06,1.32-.1,1.85-1.3,2.21-2a3.22,3.22,0,0,1,.19-.41.25.25,0,0,1,.32-.14.19.19,0,0,1,.16.14.44.44,0,0,1,0,.32C111.66,124.24,111.33,126.38,111.24,126.65Z"/><path class="cls-2" d="M134.76,115a2.33,2.33,0,0,0-.41,0,1.36,1.36,0,0,0-.77.85,3.52,3.52,0,0,0-.16,1.15V127s-.09.25-.25.29-.32-.16-.34-.21l-7.3-11.25v8.89c0,.73.12,1.2.39,1.41a1.49,1.49,0,0,0,.82.29c.2,0,.41.12.39.35a.32.32,0,0,1-.3.32h-3.17a.44.44,0,0,1-.25-.07.26.26,0,0,1-.11-.23.36.36,0,0,1,.34-.32,2.87,2.87,0,0,0,.8-.36,1.7,1.7,0,0,0,.45-1.39v-8.46a1,1,0,0,0-.41-1,1.67,1.67,0,0,0-.9-.22.35.35,0,0,1-.33-.32.3.3,0,0,1,.33-.32h2.16a.63.63,0,0,1,.61.38l6.43,9.85v-7.55a2.49,2.49,0,0,0-.39-1.7,1.38,1.38,0,0,0-1-.34.36.36,0,0,1-.34-.34.35.35,0,0,1,.32-.32h3.37a.33.33,0,0,1,.28.32A.37.37,0,0,1,134.76,115Z"/><path class="cls-2" d="M157.35,117.86a.2.2,0,0,1-.21,0,.36.36,0,0,1-.2-.19,5.88,5.88,0,0,1-.39-.86c-.3-.8-.66-1.69-1.33-1.75-.36,0-.77,0-1.11,0h-.36c-.55,0-.74.08-.89.29a1,1,0,0,0-.12.59v9.43c0,.44.11.74.35.85a4.87,4.87,0,0,0,1.2.16.37.37,0,0,1,.34.38.33.33,0,0,1-.34.33h-4.56c-.13,0-.36-.1-.36-.33a.37.37,0,0,1,.36-.36,5.31,5.31,0,0,0,1.21-.18c.23-.11.35-.41.35-.85V116a1,1,0,0,0-.14-.64c-.16-.2-.41-.24-.87-.24h-.14c-.41,0-.75,0-1.22,0-.69,0-1.08,1-1.42,1.77a6.11,6.11,0,0,1-.38.8.29.29,0,0,1-.19.2.29.29,0,0,1-.22,0c-.14-.07-.17-.32-.1-.5s.46-2.44.51-2.58a.5.5,0,0,1,.47-.34h9a.49.49,0,0,1,.47.34c0,.14.39,2.35.44,2.62S157.5,117.79,157.35,117.86Z"/><path class="cls-2" d="M178.33,125.48a5.1,5.1,0,0,1-4,1.78,4.93,4.93,0,0,1-3.89-2,7,7,0,0,1-1.53-4.7,7.07,7.07,0,0,1,1.67-4.65,5,5,0,0,1,4-1.8,5.12,5.12,0,0,1,3.9,2A7.2,7.2,0,0,1,180,121,6.56,6.56,0,0,1,178.33,125.48Zm-.77-8.84a3.41,3.41,0,0,0-3-1.7,3.48,3.48,0,0,0-3,1.61,7.27,7.27,0,0,0-1.16,4.09,6.85,6.85,0,0,0,1,4,3.45,3.45,0,0,0,6,.12,6.71,6.71,0,0,0,1.12-3.93A7.16,7.16,0,0,0,177.56,116.64Z"/><path class="cls-2" d="M88.82,178.44a5.07,5.07,0,0,1-4,1.78,5,5,0,0,1-3.89-1.94,7,7,0,0,1-1.53-4.71,7.14,7.14,0,0,1,1.67-4.65,5,5,0,0,1,4-1.8,5.1,5.1,0,0,1,3.9,2,7.12,7.12,0,0,1,1.55,4.81A6.54,6.54,0,0,1,88.82,178.44Zm-.77-8.84a3.38,3.38,0,0,0-3-1.69,3.48,3.48,0,0,0-3,1.6,7.41,7.41,0,0,0-1.16,4.1,6.84,6.84,0,0,0,1,4,3.46,3.46,0,0,0,6,.13A6.67,6.67,0,0,0,89,173.77,7.08,7.08,0,0,0,88.05,169.6Z"/><path class="cls-2" d="M113.57,168s-.27,0-.41,0a1.33,1.33,0,0,0-.77.86,3.21,3.21,0,0,0-.16,1.14v9.91s-.09.25-.25.28-.32-.16-.34-.21l-7.31-11.25v8.9a1.79,1.79,0,0,0,.4,1.41,1.45,1.45,0,0,0,.82.28c.19,0,.41.13.39.36a.33.33,0,0,1-.3.32h-3.18a.46.46,0,0,1-.25-.07.3.3,0,0,1-.1-.23.36.36,0,0,1,.34-.33,3.05,3.05,0,0,0,.8-.35,1.73,1.73,0,0,0,.44-1.39v-8.47c0-.5-.14-.84-.41-1a1.7,1.7,0,0,0-.89-.21.36.36,0,0,1-.34-.32.31.31,0,0,1,.34-.32h2.16a.61.61,0,0,1,.6.37l6.44,9.86V170a2.48,2.48,0,0,0-.39-1.69,1.35,1.35,0,0,0-1-.34.38.38,0,0,1-.34-.34.34.34,0,0,1,.32-.32h3.37a.33.33,0,0,1,.28.32A.36.36,0,0,1,113.57,168Z"/><path class="cls-2" d="M134.92,179.51c-.13.39-.7.44-.74.44h-8a.3.3,0,0,1-.32-.32c0-.23.19-.26.28-.3h0a4.63,4.63,0,0,0,1-.25c.27-.14.39-.46.39-1v-9c0-.51-.12-.81-.36-.94a2,2,0,0,0-1-.2.32.32,0,0,1-.3-.32.28.28,0,0,1,.27-.32h4.29a.3.3,0,0,1,.29.31.3.3,0,0,1-.29.32,4.86,4.86,0,0,0-1.1.23c-.25.12-.38.43-.38.92v9c0,.55.11.89.36,1a14.76,14.76,0,0,0,2.81.14c1.82-.21,2.36-1.53,2.87-2.82a.27.27,0,0,1,.34-.14c.18,0,.16.22.13.38S135,179.22,134.92,179.51Z"/><path class="cls-2" d="M151.55,167.94a3.39,3.39,0,0,0-1,.22c-.25.12-.36.42-.36.92v8.74c0,.69.09,1.12.27,1.28a4,4,0,0,0,1.05.25c.11,0,.31.05.31.3a.34.34,0,0,1-.31.32h-4.08a.32.32,0,0,1-.32-.32.34.34,0,0,1,.32-.3,3.76,3.76,0,0,0,1-.27c.23-.16.34-.59.34-1.26v-8.74c0-.5-.11-.82-.34-.94a1.7,1.7,0,0,0-1-.2.33.33,0,0,1-.32-.34.32.32,0,0,1,.35-.3h4a.35.35,0,0,1,.24.09.26.26,0,0,1,.08.23C151.85,167.89,151.66,167.92,151.55,167.94Z"/><path class="cls-2" d="M175.31,168s-.27,0-.41,0a1.33,1.33,0,0,0-.77.86A3.21,3.21,0,0,0,174,170v9.91s-.09.25-.25.28-.32-.16-.34-.21l-7.3-11.25v8.9c0,.73.12,1.19.39,1.41a1.45,1.45,0,0,0,.82.28c.19,0,.41.13.39.36a.33.33,0,0,1-.3.32H164.2a.46.46,0,0,1-.25-.07.3.3,0,0,1-.1-.23.36.36,0,0,1,.34-.33,3.05,3.05,0,0,0,.8-.35,1.73,1.73,0,0,0,.44-1.39v-8.47c0-.5-.14-.84-.41-1a1.7,1.7,0,0,0-.89-.21.36.36,0,0,1-.34-.32.31.31,0,0,1,.34-.32h2.16a.61.61,0,0,1,.6.37l6.44,9.86V170a2.48,2.48,0,0,0-.39-1.69,1.35,1.35,0,0,0-1-.34.38.38,0,0,1-.34-.34.34.34,0,0,1,.32-.32h3.37a.33.33,0,0,1,.28.32A.36.36,0,0,1,175.31,168Z"/><path class="cls-2" d="M196.79,179.62a.62.62,0,0,1-.64.37h-8.38a.44.44,0,0,1-.25-.07.33.33,0,0,1-.11-.21.43.43,0,0,1,.09-.31.41.41,0,0,1,.27-.09,3.07,3.07,0,0,0,.93-.23.93.93,0,0,0,.42-.85v-9c0-.77-.14-1.11-1.06-1.21a.49.49,0,0,1-.31-.13.33.33,0,0,1-.07-.23c0-.28.27-.3.38-.32H196a.44.44,0,0,1,.52.3c.14.63.43,2.3.46,2.59a.35.35,0,0,1-.16.43.31.31,0,0,1-.23,0,.35.35,0,0,1-.18-.22,3.3,3.3,0,0,0-3-2.44H191.3c-.39,0-.52,0-.64.12s-.15.22-.15.7v4.29h2.64a1,1,0,0,0,1.09-.57,4.78,4.78,0,0,0,.21-1.19.36.36,0,0,1,.31-.32.3.3,0,0,1,.34.32v4.22a.29.29,0,0,1-.29.31c-.27,0-.32-.16-.32-.31a5,5,0,0,0-.25-1.22,1,1,0,0,0-1.09-.58h-2.64v4.37c0,.64,0,1.23,1.25,1.23h1.87c.22,0,.7-.05.7-.05,1.32-.11,1.85-1.3,2.21-2.05a2.68,2.68,0,0,1,.19-.41.25.25,0,0,1,.33-.14.21.21,0,0,1,.16.14.5.5,0,0,1,0,.32C197.22,177.21,196.88,179.35,196.79,179.62Z"/><path class="cls-2" d="M86.86,232.72a4.45,4.45,0,0,1-2.23.54,6.08,6.08,0,0,1-2.78-.63,2.57,2.57,0,0,0-.27-.12.67.67,0,0,0-.73.14.43.43,0,0,1-.32.13.27.27,0,0,1-.12-.2L80,229.53c0-.09,0-.32.16-.37a.25.25,0,0,1,.25,0,.72.72,0,0,1,.16.25,5.53,5.53,0,0,0,1.21,2.1,3.76,3.76,0,0,0,2.75,1c.69,0,2.51-.32,2.71-2a2.37,2.37,0,0,0-.25-1.37,4.18,4.18,0,0,0-.7-.82,5.66,5.66,0,0,0-1.17-.7c-.36-.14-.81-.34-1.34-.51s-1-.41-1.43-.57a6.28,6.28,0,0,1-1.06-.66,2.85,2.85,0,0,1-.75-1,2.81,2.81,0,0,1-.27-1.32,3.59,3.59,0,0,1,1-2.46,3.53,3.53,0,0,1,2.66-1,5,5,0,0,1,1.47.34,5.29,5.29,0,0,0,1,.3,1.22,1.22,0,0,0,.69-.19.28.28,0,0,1,.23,0c.17.07.22.3.24.32l.32,2.78a.32.32,0,0,1-.23.3.24.24,0,0,1-.33-.16,6.79,6.79,0,0,0-1.21-2,3.83,3.83,0,0,0-2.14-.89,2.35,2.35,0,0,0-1.89.52,2.38,2.38,0,0,0-.81,1.68,1.72,1.72,0,0,0,.78,1.53,9.48,9.48,0,0,0,2.12,1.09c.62.25,1.14.48,1.52.64l.37.16a5.48,5.48,0,0,1,1.12.71,3.08,3.08,0,0,1,.84,1.11,3,3,0,0,1,.36,1.55A3.34,3.34,0,0,1,86.86,232.72Z"/><path class="cls-2" d="M111.13,223.79a.2.2,0,0,1-.21,0,.33.33,0,0,1-.2-.19,5,5,0,0,1-.39-.86c-.31-.8-.66-1.69-1.34-1.75h-1.46c-.55,0-.75.08-.89.29a1,1,0,0,0-.13.59v9.42c0,.45.11.75.36.86a4.85,4.85,0,0,0,1.19.16.37.37,0,0,1,.34.38.33.33,0,0,1-.34.33H103.5c-.12,0-.36-.1-.36-.33a.37.37,0,0,1,.36-.36,5.31,5.31,0,0,0,1.21-.18c.23-.11.36-.41.36-.86v-9.42a1.07,1.07,0,0,0-.14-.64c-.16-.2-.41-.24-.88-.24H102.7c-.7,0-1.09,1-1.43,1.77a8,8,0,0,1-.37.8.29.29,0,0,1-.2.2.26.26,0,0,1-.21,0c-.14-.07-.18-.32-.11-.5s.47-2.44.52-2.58a.5.5,0,0,1,.46-.34h9a.48.48,0,0,1,.46.34c0,.14.39,2.35.45,2.62A.41.41,0,0,1,111.13,223.79Z"/><path class="cls-2" d="M132.64,231.4a5.08,5.08,0,0,1-4,1.79,4.91,4.91,0,0,1-3.89-1.95,7,7,0,0,1-1.53-4.7,7.07,7.07,0,0,1,1.67-4.65,5,5,0,0,1,4-1.8,5.09,5.09,0,0,1,3.9,2,7.19,7.19,0,0,1,1.55,4.81A6.57,6.57,0,0,1,132.64,231.4Zm-.77-8.84a3.42,3.42,0,0,0-3-1.69,3.48,3.48,0,0,0-3,1.61,7.27,7.27,0,0,0-1.16,4.09,6.87,6.87,0,0,0,1,4,3.45,3.45,0,0,0,6,.12,6.72,6.72,0,0,0,1.12-3.94A7.2,7.2,0,0,0,131.87,222.56Z"/><path class="cls-2" d="M156.29,233s-.56,0-1,0c-1.18,0-1.41-.5-1.61-.89,0-.07-.07-.12-.1-.18-.2-.34-2.23-4.74-2.46-5.22h-2.25v4.47c0,.52.09.84.29,1a4,4,0,0,0,1.1.23.29.29,0,0,1,.29.28.36.36,0,0,1-.09.25.25.25,0,0,1-.2.09h-4.12a.36.36,0,0,1-.17-.05.34.34,0,0,1-.09-.27.21.21,0,0,1,.07-.21.28.28,0,0,1,.21-.09,4.44,4.44,0,0,0,1-.25c.23-.12.34-.45.34-.95V222a1,1,0,0,0-1-1.07.39.39,0,0,1-.39-.37c0-.24.26-.31.41-.31h4.84c4.07,0,4.28,2.68,4.28,3.21a3.18,3.18,0,0,1-3.08,3.19l2.21,4.39a2.48,2.48,0,0,0,.92,1.14,2.53,2.53,0,0,0,.34.07c.24,0,.52.07.56.32A.37.37,0,0,1,156.29,233Zm-4.85-12c-.32,0-.72,0-1,0a3.52,3.52,0,0,0-1.19.18c-.23.13-.36.43-.36.91v4h1.73a4,4,0,0,0,3-.91,2.51,2.51,0,0,0,.57-1.71C154.16,222.56,153.63,221.07,151.44,221Z"/><path class="cls-2" d="M176.88,232.58a.64.64,0,0,1-.64.38h-8.37a.4.4,0,0,1-.25-.08c-.08,0-.09-.12-.11-.21a.42.42,0,0,1,.09-.3.34.34,0,0,1,.27-.09,3,3,0,0,0,.92-.23.93.93,0,0,0,.43-.86v-9c0-.76-.14-1.1-1.07-1.21a.46.46,0,0,1-.3-.12.3.3,0,0,1-.07-.23.34.34,0,0,1,.37-.32h7.9c.16,0,.46,0,.51.3.15.62.43,2.3.47,2.58a.37.37,0,0,1-.16.43.25.25,0,0,1-.24,0,.32.32,0,0,1-.17-.21,3.29,3.29,0,0,0-3-2.44h-2.07c-.39,0-.51,0-.64.12s-.14.21-.14.69V226h2.64a1.07,1.07,0,0,0,1.09-.57,4.85,4.85,0,0,0,.21-1.19.36.36,0,0,1,.3-.33.3.3,0,0,1,.34.33v4.22a.31.31,0,0,1-.61,0,5.35,5.35,0,0,0-.24-1.23,1.07,1.07,0,0,0-1.09-.57h-2.64v4.37c0,.64,0,1.23,1.25,1.23h1.87c.21,0,.69-.06.69-.06,1.32-.1,1.86-1.3,2.21-2.05.08-.16.13-.3.2-.41a.25.25,0,0,1,.32-.14.19.19,0,0,1,.16.14.44.44,0,0,1,0,.32C177.31,230.17,177,232.31,176.88,232.58Z"/></g></g></svg>