<svg xmlns="http://www.w3.org/2000/svg" width="150.47" height="300" viewBox="0 0 150.47 300"><defs><style>.cls-1{fill:none;stroke:#000;stroke-miterlimit:10;stroke-width:0.66px;}</style></defs><title>アセット 1</title><g id="レイヤー_2" data-name="レイヤー 2"><g id="design"><path d="M74.24,61.12c-.88,0-.88-.06-.88-1.62V42.58a2.21,2.21,0,0,0-1.7-2.45c-.51-.1-1.33.18-1.75-.17s-.34-1.43-.26-2c.1-.74.78-.49,1.4-.49h7.58c.73,0,1.85-.35,2,.6.11.6.24,2-.63,2-.21,0-.45,0-.73,0A2.12,2.12,0,0,0,77,42.58V59.73c0,.72,0,1.39-.87,1.39Z"/><path d="M70.62,102.86a1.26,1.26,0,0,1-.31-.14c-1-.64-.57-2.47-.57-3.42V80.89c0-1.62,0-1.62.88-1.62,3,0,6.1-.09,9.15,0,.88,0,1,1.08.85,1.74s-.1.7-.66.75a13.68,13.68,0,0,1-1.81,0l-1.42,0c-3.39,0-3.39,2.13-3.39,3.27,0,2.35,0,4.38,3.2,4.38,1.46,0,2.17,0,2.69,0,.82,0,.86.3.86,1s.23,1.4-.54,1.58a11.1,11.1,0,0,1-2.51,0l-1.16,0c-2.54,0-2.54,2-2.54,3.09v2.59s0,.08,0,.12a2.77,2.77,0,0,0,2.9,2.45c1.34,0,2.13,0,2.71-.05.94,0,1.57,0,1.57,1,0,.42.15,1.45-.24,1.79s-1.53.1-2,.1H73.1A10.3,10.3,0,0,1,70.62,102.86Z"/><path d="M81.88,144.7a2.55,2.55,0,0,1-1,.1c-1.94-.07-2.19-1.76-2.93-3.28-1.27-2.61-2.38-5.36-3.81-7.84a4.77,4.77,0,0,0-1.52-2c-1-.57-1.54.12-1.55,1.14,0,2.05.06,4.19.06,6.27l0,4.15c0,.83-.09,1.57-1,1.61a4,4,0,0,1-2.14-.16c-.5-.34-.42-.94-.42-1.45V122.84c0-1.5,1.88-2,3.11-1.48,1,.37,1.2,1.47,1.61,2.36,1.34,2.84,2.45,5.82,4.32,8.37.37.51.72,1.2,1.4,1.21a1,1,0,0,0,1-.64,6.5,6.5,0,0,0,.29-2.71c0-.92-.08-1.83-.08-2.74a32.48,32.48,0,0,1,0-5c.13-.81.91-1,1.62-1a2.72,2.72,0,0,1,1.44.19c.61.35.53.83.53,1.46v20.37A1.37,1.37,0,0,1,81.88,144.7Z"/><path d="M74.29,186.68l-.26-.06c-.65-.22-.61-1-.61-1.58V168.11a2.26,2.26,0,0,0-.61-1.87,1.25,1.25,0,0,0-.28-.15,4.17,4.17,0,0,0-1.88-.46c-.4,0-.69.11-.92-.23a1.65,1.65,0,0,1-.15-.82c0-.47.11-1.31.65-1.5a8,8,0,0,1,2.59,0h4c1.06,0,2.13-.06,3.18,0,.78.07.73.41.73,1.11,0,.54.17,1.49-.63,1.45-1.82-.1-3.08.56-3.08,2.47v17.15c0,.49,0,1.13-.45,1.38a2.32,2.32,0,0,1-1.14.1C75.08,186.71,74.66,186.74,74.29,186.68Z"/><path d="M75.23,228.68c-6.35,0-7-2.73-7-9,0-.49,0-1,0-1.46s0-1,0-1.58,0-1.06,0-1.58,0-1,0-1.42c0-6.24.67-9,7-9,6,0,6.62,2.69,6.62,8.84,0,1.16,0,2.31.06,3.41s0,2,0,3C82,226,81,228.68,75.23,228.68Z"/><path d="M49.49,262.18l-.11.07a1.79,1.79,0,0,1-.94-.09,3.1,3.1,0,0,1-1.48-.82,5.19,5.19,0,0,1-1.18-3.76,5,5,0,0,1,1-3.33,3.09,3.09,0,0,1,2.51-1.12.42.42,0,0,1,.39.42.63.63,0,0,1-.08.43c-.13.21-.18.16-.42.16-1.61,0-1.86,2.17-1.86,3.47a5.8,5.8,0,0,0,.36,2.37,1.89,1.89,0,0,0,.75.9,2.51,2.51,0,0,0,.63.25c.18.05.44,0,.57.19A.82.82,0,0,1,49.49,262.18Z"/><path d="M56.43,262.21c-.44,0-.38-.78-.38-1.1,0-.72,0-1.44,0-2.15a1,1,0,0,0-.12-.6.62.62,0,0,0-.41-.31,3.26,3.26,0,0,0-.76-.07h-.15c-.3,0-.82,0-1,.28a1.94,1.94,0,0,0-.12,1v2.38c0,.34,0,.6-.38.62s-.78.11-.94-.17,0-.77,0-1.05v-7.17c0-.26,0-.47.2-.59a2.16,2.16,0,0,1,.84,0c.39,0,.33.29.33.61v1.77a1.82,1.82,0,0,0,.15,1c.21.34.78.31,1.14.31a1.68,1.68,0,0,0,1.08-.23c.25-.24.21-.71.21-1v-1.81c0-.3,0-.53.33-.61.1,0,.24,0,.34,0s.5,0,.65.16.05.38.05.53,0,.5,0,.75v3.18c0,.78,0,1.56,0,2.34,0,.4,0,.79,0,1.19,0,.24.06.71-.19.86a2,2,0,0,1-.81,0Z"/><path d="M62.52,262.29c-2.43,0-2.68-1-2.68-3.41,0-.19,0-.38,0-.56s0-.4,0-.6,0-.41,0-.6,0-.37,0-.55c0-2.38.25-3.42,2.68-3.42,2.28,0,2.52,1,2.52,3.37,0,.44,0,.88,0,1.3s0,.77,0,1.13C65.08,261.26,64.71,262.29,62.52,262.29Z"/><path d="M71.08,262.2a1.26,1.26,0,0,1-.79.06,3.3,3.3,0,0,1-1.72-.85,5,5,0,0,1-1.23-3.63,1.41,1.41,0,0,1,0-.2,5,5,0,0,1,1-3.32,2.89,2.89,0,0,1,2.6-1.1c.28.08.27.2.28.48,0,.46-.05.5-.48.5-1.61,0-1.85,2.17-1.85,3.47a5.49,5.49,0,0,0,.57,2.88,1.37,1.37,0,0,0,.77.59c.28.09.83,0,1,.33a.79.79,0,0,1-.06.76Z"/><path d="M76,262.29c-2.43,0-2.68-1-2.68-3.41,0-.19,0-.38,0-.56v-1.2c0-.19,0-.37,0-.55,0-2.38.25-3.42,2.68-3.42,2.28,0,2.52,1,2.52,3.37,0,.44,0,.88,0,1.3s0,.77,0,1.13C78.6,261.26,78.23,262.29,76,262.29Z"/><path d="M81.49,262.2l0,0c-.5-.26-.29-1-.29-1.45v-6.89c0-.16,0-.38.07-.5a.52.52,0,0,1,.33-.14h.21a2.06,2.06,0,0,1,.43,0,.36.36,0,0,1,.25.06c.14.13.08.39.08.56v6.09c0,.32,0,1.28,1,1.31l1,0c.36,0,.52,0,.52.39,0,.62,0,.62-.34.62H82.6A3.75,3.75,0,0,1,81.49,262.2Z"/><path d="M91.14,262.08a.87.87,0,0,1-.27-.64c-.07-.57-.17-1.34-.87-1.34H88.87c-.69,0-.82.77-.92,1.32,0,.21,0,.54-.18.7s-.43.1-.65.1c-.47,0-.64-.11-.64-.61a5.91,5.91,0,0,1,.24-1.24c.22-1.1.59-2.95,1.17-6.45a1.32,1.32,0,0,1,.16-.52c.21-.31.75-.2,1-.19a14.56,14.56,0,0,1,1.48,0c.32,0,.37.44.42.7.52,3.09.9,5,1.16,6.2.08.4.17.8.24,1.2a2.57,2.57,0,0,1,.06.4c0,.5-.3.48-.71.48A1,1,0,0,1,91.14,262.08Z"/><path d="M95.7,262.21c-.35,0-.34-.27-.34-.61v-6.45c0-.63-.29-1-.88-1-.25,0-.41,0-.53-.24a.67.67,0,0,1,0-.67c.15-.17.58-.07.78-.07h1.34c.48,0,.95-.06,1.43,0,.16,0,.44,0,.55.16a.77.77,0,0,1,0,.63c-.1.29-.24.21-.51.21-.89,0-.89.66-.89,1v6.55c0,.3,0,.52-.34.52h-.7Z"/><path d="M100.66,262.18a.55.55,0,0,1-.34-.58v-7.77c0-.21,0-.41.17-.54a1.24,1.24,0,0,1,.66-.07h2.36c.27,0,.8-.12.93.18a1.18,1.18,0,0,1,0,.72c-.14.15-.71,0-.92,0H103c-1.29,0-1.29.81-1.29,1.25,0,.9,0,1.67,1.22,1.67l.84,0c.33,0,.5.13.51.45s0,.53-.42.51-.79,0-1.18,0c-1,0-1,.77-1,1.18v1a1.07,1.07,0,0,0,1.11.94h.79a1.23,1.23,0,0,1,.69.07.41.41,0,0,1,.15.25.94.94,0,0,1,0,.29.65.65,0,0,1-.1.39c-.14.19-.52.1-.73.1h-2.67A1.1,1.1,0,0,1,100.66,262.18Z"/><line class="cls-1" x1="121.42" y1="158.24" x2="121.42" y2="141.81"/><line class="cls-1" x1="122.45" y1="160.25" x2="130.91" y2="168.71"/><line class="cls-1" x1="122.45" y1="178.38" x2="130.91" y2="169.92"/><line class="cls-1" x1="140.57" y1="178.38" x2="132.11" y2="169.92"/><line class="cls-1" x1="140.57" y1="160.25" x2="132.11" y2="168.71"/><line class="cls-1" x1="132.11" y1="111.95" x2="140.57" y2="120.41"/><line class="cls-1" x1="132.11" y1="130.08" x2="140.56" y2="121.62"/><line class="cls-1" x1="130.91" y1="130.08" x2="122.45" y2="121.62"/><line class="cls-1" x1="130.91" y1="111.95" x2="122.45" y2="120.41"/><line class="cls-1" x1="122.45" y1="102.27" x2="130.91" y2="110.74"/><line class="cls-1" x1="140.57" y1="102.28" x2="132.11" y2="110.74"/><line class="cls-1" x1="122.45" y1="139.75" x2="130.91" y2="131.29"/><line class="cls-1" x1="140.57" y1="139.75" x2="132.11" y2="131.29"/><line class="cls-1" x1="112.79" y1="131.29" x2="121.25" y2="139.75"/><line class="cls-1" x1="130.91" y1="149.42" x2="122.45" y2="140.96"/><line class="cls-1" x1="141.59" y1="158.24" x2="141.59" y2="141.81"/><line class="cls-1" x1="132.11" y1="149.42" x2="140.56" y2="140.96"/><line class="cls-1" x1="150.22" y1="131.29" x2="141.77" y2="139.75"/><line class="cls-1" x1="112.79" y1="168.71" x2="121.25" y2="160.25"/><line class="cls-1" x1="130.92" y1="150.6" x2="122.46" y2="159.06"/><line class="cls-1" x1="150.23" y1="168.71" x2="141.77" y2="160.26"/><line class="cls-1" x1="132.1" y1="150.6" x2="140.56" y2="159.05"/><line class="cls-1" x1="136.04" y1="78.13" x2="136.04" y2="86.34"/><line class="cls-1" x1="126.98" y1="86.34" x2="126.98" y2="78.13"/><line class="cls-1" x1="122.45" y1="63.05" x2="130.91" y2="71.51"/><line class="cls-1" x1="122.45" y1="81.18" x2="130.91" y2="72.72"/><line class="cls-1" x1="140.57" y1="81.19" x2="132.11" y2="72.72"/><line class="cls-1" x1="140.57" y1="63.05" x2="132.11" y2="71.51"/><line class="cls-1" x1="126.98" y1="105.33" x2="126.98" y2="97.12"/><line class="cls-1" x1="136.04" y1="97.12" x2="136.04" y2="105.33"/><line class="cls-1" x1="136.04" y1="96.26" x2="132.11" y2="92.34"/><line class="cls-1" x1="136.04" y1="87.2" x2="132.11" y2="91.13"/><line class="cls-1" x1="126.98" y1="87.2" x2="130.91" y2="91.12"/><line class="cls-1" x1="126.98" y1="96.26" x2="130.91" y2="92.33"/><line class="cls-1" x1="122.45" y1="43.71" x2="130.91" y2="52.17"/><line class="cls-1" x1="122.45" y1="61.84" x2="130.91" y2="53.38"/><line class="cls-1" x1="140.57" y1="61.85" x2="132.11" y2="53.38"/><line class="cls-1" x1="140.57" y1="43.71" x2="132.11" y2="52.17"/><line class="cls-1" x1="136.04" y1="46.77" x2="132.11" y2="42.84"/><line class="cls-1" x1="136.04" y1="37.7" x2="132.11" y2="41.63"/><line class="cls-1" x1="126.98" y1="37.7" x2="130.91" y2="41.63"/><line class="cls-1" x1="126.98" y1="46.77" x2="130.91" y2="42.84"/><line class="cls-1" x1="131.51" y1="28.16" x2="131.51" y2="40.12"/><line class="cls-1" x1="128.95" y1="23.48" x2="130.91" y2="25.44"/><line class="cls-1" x1="128.94" y1="28.61" x2="130.91" y2="26.65"/><line class="cls-1" x1="134.07" y1="28.61" x2="132.11" y2="26.65"/><line class="cls-1" x1="134.08" y1="23.48" x2="132.11" y2="25.44"/><line class="cls-1" x1="131.51" y1="23.93" x2="131.51"/><line class="cls-1" x1="129.4" y1="26.04" x2="122.45" y2="26.04"/><line class="cls-1" x1="133.62" y1="26.04" x2="140.57" y2="26.04"/><line class="cls-1" x1="130.91" y1="188.05" x2="122.45" y2="179.59"/><line class="cls-1" x1="132.11" y1="188.05" x2="140.56" y2="179.59"/><line class="cls-1" x1="140.56" y1="197.73" x2="132.1" y2="189.26"/><line class="cls-1" x1="122.45" y1="197.72" x2="130.9" y2="189.26"/><line class="cls-1" x1="126.98" y1="221.87" x2="126.98" y2="213.66"/><line class="cls-1" x1="136.04" y1="213.66" x2="136.04" y2="221.87"/><line class="cls-1" x1="140.56" y1="236.95" x2="132.1" y2="228.49"/><line class="cls-1" x1="140.56" y1="218.82" x2="132.11" y2="227.28"/><line class="cls-1" x1="122.45" y1="218.81" x2="130.91" y2="227.28"/><line class="cls-1" x1="122.45" y1="236.95" x2="130.9" y2="228.49"/><line class="cls-1" x1="136.03" y1="194.67" x2="136.03" y2="202.88"/><line class="cls-1" x1="126.98" y1="202.88" x2="126.98" y2="194.67"/><line class="cls-1" x1="126.98" y1="203.74" x2="130.91" y2="207.66"/><line class="cls-1" x1="126.98" y1="212.8" x2="130.9" y2="208.87"/><line class="cls-1" x1="136.03" y1="212.8" x2="132.1" y2="208.88"/><line class="cls-1" x1="136.03" y1="203.74" x2="132.11" y2="207.67"/><line class="cls-1" x1="140.56" y1="256.29" x2="132.1" y2="247.83"/><line class="cls-1" x1="140.56" y1="238.16" x2="132.11" y2="246.62"/><line class="cls-1" x1="122.45" y1="238.15" x2="130.91" y2="246.62"/><line class="cls-1" x1="122.45" y1="256.29" x2="130.9" y2="247.83"/><line class="cls-1" x1="126.98" y1="253.23" x2="130.91" y2="257.16"/><line class="cls-1" x1="126.98" y1="262.3" x2="130.9" y2="258.37"/><line class="cls-1" x1="136.03" y1="262.3" x2="132.1" y2="258.37"/><line class="cls-1" x1="136.03" y1="253.23" x2="132.11" y2="257.16"/><line class="cls-1" x1="131.51" y1="271.84" x2="131.51" y2="259.88"/><line class="cls-1" x1="134.07" y1="276.52" x2="132.1" y2="274.56"/><line class="cls-1" x1="134.07" y1="271.39" x2="132.11" y2="273.35"/><line class="cls-1" x1="128.94" y1="271.39" x2="130.91" y2="273.35"/><line class="cls-1" x1="128.94" y1="276.52" x2="130.9" y2="274.56"/><line class="cls-1" x1="131.51" y1="276.07" x2="131.51" y2="300"/><line class="cls-1" x1="133.62" y1="273.96" x2="140.56" y2="273.96"/><line class="cls-1" x1="129.39" y1="273.96" x2="122.45" y2="273.96"/><line class="cls-1" x1="8.87" y1="158.24" x2="8.87" y2="141.81"/><line class="cls-1" x1="9.9" y1="160.25" x2="18.36" y2="168.71"/><line class="cls-1" x1="9.9" y1="178.38" x2="18.35" y2="169.92"/><line class="cls-1" x1="28.02" y1="178.38" x2="19.55" y2="169.92"/><line class="cls-1" x1="28.01" y1="160.25" x2="19.56" y2="168.71"/><line class="cls-1" x1="19.55" y1="111.95" x2="28.02" y2="120.41"/><line class="cls-1" x1="19.56" y1="130.08" x2="28.01" y2="121.62"/><line class="cls-1" x1="18.36" y1="130.08" x2="9.89" y2="121.62"/><line class="cls-1" x1="18.35" y1="111.95" x2="9.9" y2="120.41"/><line class="cls-1" x1="9.9" y1="102.27" x2="18.36" y2="110.74"/><line class="cls-1" x1="28.01" y1="102.28" x2="19.56" y2="110.74"/><line class="cls-1" x1="9.9" y1="139.75" x2="18.35" y2="131.29"/><line class="cls-1" x1="28.02" y1="139.75" x2="19.55" y2="131.29"/><line class="cls-1" x1="0.24" y1="131.29" x2="8.7" y2="139.75"/><line class="cls-1" x1="18.36" y1="149.42" x2="9.89" y2="140.96"/><line class="cls-1" x1="29.04" y1="158.24" x2="29.04" y2="141.81"/><line class="cls-1" x1="19.56" y1="149.42" x2="28.01" y2="140.96"/><line class="cls-1" x1="37.67" y1="131.29" x2="29.22" y2="139.75"/><line class="cls-1" x1="0.23" y1="168.71" x2="8.7" y2="160.25"/><line class="cls-1" x1="18.37" y1="150.6" x2="9.91" y2="159.06"/><line class="cls-1" x1="37.68" y1="168.71" x2="29.22" y2="160.26"/><line class="cls-1" x1="19.55" y1="150.6" x2="28.01" y2="159.05"/><line class="cls-1" x1="23.48" y1="78.13" x2="23.48" y2="86.34"/><line class="cls-1" x1="14.43" y1="86.34" x2="14.43" y2="78.13"/><line class="cls-1" x1="9.9" y1="63.05" x2="18.36" y2="71.51"/><line class="cls-1" x1="9.9" y1="81.18" x2="18.35" y2="72.72"/><line class="cls-1" x1="28.02" y1="81.19" x2="19.55" y2="72.72"/><line class="cls-1" x1="28.01" y1="63.05" x2="19.56" y2="71.51"/><line class="cls-1" x1="14.43" y1="105.33" x2="14.43" y2="97.12"/><line class="cls-1" x1="23.49" y1="97.12" x2="23.49" y2="105.33"/><line class="cls-1" x1="23.49" y1="96.26" x2="19.55" y2="92.34"/><line class="cls-1" x1="23.49" y1="87.2" x2="19.56" y2="91.13"/><line class="cls-1" x1="14.43" y1="87.2" x2="18.36" y2="91.12"/><line class="cls-1" x1="14.43" y1="96.26" x2="18.35" y2="92.33"/><line class="cls-1" x1="9.9" y1="43.71" x2="18.36" y2="52.17"/><line class="cls-1" x1="9.9" y1="61.84" x2="18.35" y2="53.38"/><line class="cls-1" x1="28.02" y1="61.85" x2="19.55" y2="53.38"/><line class="cls-1" x1="28.01" y1="43.71" x2="19.56" y2="52.17"/><line class="cls-1" x1="23.49" y1="46.77" x2="19.55" y2="42.84"/><line class="cls-1" x1="23.49" y1="37.7" x2="19.56" y2="41.63"/><line class="cls-1" x1="14.43" y1="37.7" x2="18.36" y2="41.63"/><line class="cls-1" x1="14.43" y1="46.77" x2="18.35" y2="42.84"/><line class="cls-1" x1="18.96" y1="28.16" x2="18.96" y2="40.12"/><line class="cls-1" x1="16.39" y1="23.48" x2="18.36" y2="25.44"/><line class="cls-1" x1="16.39" y1="28.61" x2="18.35" y2="26.65"/><line class="cls-1" x1="21.52" y1="28.61" x2="19.55" y2="26.65"/><line class="cls-1" x1="21.52" y1="23.48" x2="19.56" y2="25.44"/><line class="cls-1" x1="18.96" y1="23.93" x2="18.96"/><line class="cls-1" x1="16.85" y1="26.04" x2="9.9" y2="26.04"/><line class="cls-1" x1="21.07" y1="26.04" x2="28.01" y2="26.04"/><line class="cls-1" x1="18.36" y1="188.05" x2="9.89" y2="179.59"/><line class="cls-1" x1="19.56" y1="188.05" x2="28.01" y2="179.59"/><line class="cls-1" x1="28.01" y1="197.73" x2="19.55" y2="189.26"/><line class="cls-1" x1="9.9" y1="197.72" x2="18.35" y2="189.26"/><line class="cls-1" x1="14.43" y1="221.87" x2="14.43" y2="213.66"/><line class="cls-1" x1="23.48" y1="213.66" x2="23.48" y2="221.87"/><line class="cls-1" x1="28.01" y1="236.95" x2="19.55" y2="228.49"/><line class="cls-1" x1="28.01" y1="218.82" x2="19.56" y2="227.28"/><line class="cls-1" x1="9.89" y1="218.81" x2="18.36" y2="227.28"/><line class="cls-1" x1="9.9" y1="236.95" x2="18.35" y2="228.49"/><line class="cls-1" x1="23.48" y1="194.67" x2="23.48" y2="202.88"/><line class="cls-1" x1="14.42" y1="202.88" x2="14.42" y2="194.67"/><line class="cls-1" x1="14.42" y1="203.74" x2="18.36" y2="207.66"/><line class="cls-1" x1="14.42" y1="212.8" x2="18.35" y2="208.87"/><line class="cls-1" x1="23.48" y1="212.8" x2="19.55" y2="208.88"/><line class="cls-1" x1="23.48" y1="203.74" x2="19.56" y2="207.67"/><line class="cls-1" x1="28.01" y1="256.29" x2="19.55" y2="247.83"/><line class="cls-1" x1="28.01" y1="238.16" x2="19.56" y2="246.62"/><line class="cls-1" x1="9.89" y1="238.15" x2="18.36" y2="246.62"/><line class="cls-1" x1="9.9" y1="256.29" x2="18.35" y2="247.83"/><line class="cls-1" x1="14.42" y1="253.23" x2="18.36" y2="257.16"/><line class="cls-1" x1="14.42" y1="262.3" x2="18.35" y2="258.37"/><line class="cls-1" x1="23.48" y1="262.3" x2="19.55" y2="258.37"/><line class="cls-1" x1="23.48" y1="253.23" x2="19.56" y2="257.16"/><line class="cls-1" x1="18.95" y1="271.84" x2="18.95" y2="259.88"/><line class="cls-1" x1="21.52" y1="276.52" x2="19.55" y2="274.56"/><line class="cls-1" x1="21.52" y1="271.39" x2="19.56" y2="273.35"/><line class="cls-1" x1="16.39" y1="271.39" x2="18.36" y2="273.35"/><line class="cls-1" x1="16.39" y1="276.52" x2="18.35" y2="274.56"/><line class="cls-1" x1="18.95" y1="276.07" x2="18.95" y2="300"/><line class="cls-1" x1="21.06" y1="273.96" x2="28.01" y2="273.96"/><line class="cls-1" x1="16.84" y1="273.96" x2="9.9" y2="273.96"/></g></g></svg>