<svg xmlns="http://www.w3.org/2000/svg" width="18.75" height="18.75" viewBox="0 0 18.75 18.75"><defs><style>.cls-1{fill:#fff;}</style></defs><title>アセット 2</title><g id="レイヤー_2" data-name="レイヤー 2"><g id="Logo_FIXED" data-name="Logo — FIXED"><circle cx="9.38" cy="9.38" r="9.38"/><path class="cls-1" d="M7.66,14.32a6.38,6.38,0,0,0,6.43-6.43,2.71,2.71,0,0,0,0-.29,4.65,4.65,0,0,0,1.13-1.17,4.31,4.31,0,0,1-1.3.35,2.26,2.26,0,0,0,1-1.25,4.48,4.48,0,0,1-1.44.55A2.26,2.26,0,0,0,9.56,7.63a2.16,2.16,0,0,0,.06.51A6.4,6.4,0,0,1,5,5.78a2.31,2.31,0,0,0-.3,1.14,2.26,2.26,0,0,0,1,1.88,2.19,2.19,0,0,1-1-.28v0a2.26,2.26,0,0,0,1.81,2.22,2.35,2.35,0,0,1-.6.08,2,2,0,0,1-.42,0,2.26,2.26,0,0,0,2.11,1.57,4.57,4.57,0,0,1-2.81,1,3.08,3.08,0,0,1-.53,0,6.3,6.3,0,0,0,3.46,1"/></g></g></svg>